<?xml version="1.0" encoding="UTF-8" standalone="no"?>
<!DOCTYPE svg PUBLIC "-//W3C//DTD SVG 1.1//EN" "http://www.w3.org/Graphics/SVG/1.1/DTD/svg11.dtd">
<svg width="32px" height="32px" viewBox="0 0 126 127" version="1.1" xmlns="http://www.w3.org/2000/svg" xmlns:xlink="http://www.w3.org/1999/xlink" xml:space="preserve" xmlns:serif="http://www.serif.com/" style="fill-rule:evenodd;clip-rule:evenodd;stroke-linejoin:round;stroke-miterlimit:2;">
    <g transform="matrix(1,0,0,1,-1940.45,-1705.38)">
        <g transform="matrix(1.15534,1.11022e-16,2.22045e-16,1.15534,-310.069,-270.865)">
            <g opacity="0.71">
                <g transform="matrix(0.826826,-4.996e-16,-2.22045e-16,0.82752,360.635,255.538)">
                    <path d="M2051.38,1763.49C2051.38,1762.1 2050.83,1760.77 2049.85,1759.79C2048.86,1758.81 2047.53,1758.26 2046.14,1758.26C2026.11,1758.26 1954.42,1758.26 1934.39,1758.26C1933,1758.26 1931.67,1758.81 1930.69,1759.79C1929.71,1760.77 1929.15,1762.1 1929.15,1763.49C1929.15,1783.49 1929.15,1855 1929.15,1875C1929.15,1876.38 1929.71,1877.71 1930.69,1878.69C1931.67,1879.67 1933,1880.23 1934.39,1880.23C1954.42,1880.23 2026.11,1880.23 2046.14,1880.23C2047.53,1880.23 2048.86,1879.67 2049.85,1878.69C2050.83,1877.71 2051.38,1876.38 2051.38,1875C2051.38,1855 2051.38,1783.49 2051.38,1763.49Z" style="fill:url(#_Linear1);"/>
                </g>
                <g transform="matrix(0.826826,-1.66533e-16,-5.55112e-17,0.82752,352.852,263.846)">
                    <path d="M2051.38,1763.49C2051.38,1762.1 2050.83,1760.77 2049.85,1759.79C2048.86,1758.81 2047.53,1758.26 2046.14,1758.26C2026.11,1758.26 1954.42,1758.26 1934.39,1758.26C1933,1758.26 1931.67,1758.81 1930.69,1759.79C1929.71,1760.77 1929.15,1762.1 1929.15,1763.49C1929.15,1783.49 1929.15,1855 1929.15,1875C1929.15,1876.38 1929.71,1877.71 1930.69,1878.69C1931.67,1879.67 1933,1880.23 1934.39,1880.23C1954.42,1880.23 2026.11,1880.23 2046.14,1880.23C2047.53,1880.23 2048.86,1879.67 2049.85,1878.69C2050.83,1877.71 2051.38,1876.38 2051.38,1875C2051.38,1855 2051.38,1783.49 2051.38,1763.49Z" style="fill:url(#_Linear2);"/>
                </g>
                <g transform="matrix(0.37963,-2.77556e-17,-2.22045e-16,0.37963,1237.67,1110.35)">
                    <circle cx="2011.77" cy="1796.74" r="12.744" style="fill:white;"/>
                </g>
                <g transform="matrix(0.923529,-8.87466e-17,-1.33682e-16,0.695571,155.42,538.44)">
                    <path d="M2007.26,1727.48C2007.4,1724.59 2006.64,1721.75 2005.15,1719.63C2003.66,1717.52 2001.57,1716.32 1999.39,1716.32C1999.39,1716.32 1999.39,1716.32 1999.39,1716.32C1997.21,1716.32 1995.13,1717.53 1993.66,1719.66C1992.19,1721.8 1991.46,1724.65 1991.65,1727.53C1992.72,1743.94 1994.67,1773.9 1995.48,1786.17C1995.68,1789.25 1997.63,1791.6 1999.96,1791.55C1999.96,1791.55 1999.96,1791.55 1999.96,1791.55C2002.29,1791.51 2004.19,1789.11 2004.34,1786.03C2004.95,1773.78 2006.44,1743.86 2007.26,1727.48Z" style="fill:white;"/>
                </g>
            </g>
        </g>
    </g>
    <defs>
        <linearGradient id="_Linear1" x1="0" y1="0" x2="1" y2="0" gradientUnits="userSpaceOnUse" gradientTransform="matrix(122.224,121.965,-126.172,126.228,1929.15,1758.26)"><stop offset="0" style="stop-color:rgb(255,7,0);stop-opacity:1"/><stop offset="1" style="stop-color:rgb(255,148,234);stop-opacity:1"/></linearGradient>
        <linearGradient id="_Linear2" x1="0" y1="0" x2="1" y2="0" gradientUnits="userSpaceOnUse" gradientTransform="matrix(122.224,-121.965,126.172,126.228,1929.15,1880.23)"><stop offset="0" style="stop-color:rgb(255,56,0);stop-opacity:0.65"/><stop offset="1" style="stop-color:rgb(255,161,194);stop-opacity:0.65"/></linearGradient>
    </defs>
</svg>
