<svg id="图层_1" data-name="图层 1" xmlns="http://www.w3.org/2000/svg" viewBox="0 0 50 50"><title>画板 1mdpi</title><path d="M-1,13.69V5.51A2,2,0,0,1,.88,4.21c2.18.09,3.44-1.36,4.79-2.64a13.26,13.26,0,0,1,3-2.26,1.59,1.59,0,0,1,.91-.2c6.85,0,13.69,0,20.54,0,.78.29.76.9.64,1.57-1.17,6.47-2.05,13-3.49,19.42a2.45,2.45,0,0,0,0,.54c.11.82-.61,1.18-1,1.74-2.6,1.39-4.56,3.61-6.86,5.38a2.2,2.2,0,0,1-1.41.7,2.06,2.06,0,0,1-1.42-.93c-3.46-4.36-6.83-8.79-10.24-13.19C5,12.54,5,12.51,2.78,13.24,2,13.5,1.24,13.77.46,14A1.25,1.25,0,0,1-1,13.69Z" style="fill:#3555b9"/><path d="M37.67,51q-18.87,0-37.74,0c-.82,0-1-.16-1-1,.07-2.14,0-4.27,0-6.41.9-1.87,2.75-2.73,4.29-3.87,4.13-3,8.21-6.13,12.36-9.14a2.84,2.84,0,0,1,1.57-.74,7,7,0,0,1,3.16,2.27c5.55,5.44,11,11,16.5,16.46A3.61,3.61,0,0,1,38,50.29,1,1,0,0,1,37.67,51Z" style="fill:#24a9e8"/><path d="M17.21,30.29.11,42.94c-.36.27-.76.49-1.14.73v-30A29.31,29.31,0,0,0,3.9,12.16a1.65,1.65,0,0,1,2.17.7c3.73,4.89,7.51,9.75,11.28,14.62a7,7,0,0,0,.68.65A1.37,1.37,0,0,1,17.21,30.29Z" style="fill:#3464c9"/><path d="M37.67,51v-.82a1.11,1.11,0,0,1,.71-1.05C42,47.32,45.66,45.78,49.27,44c.56-.27,1.35-.53,1.62.5a61.26,61.26,0,0,1-.14,6.5Z" style="fill:#21afe9"/><path d="M9.05-.71,3.38,4.5a.86.86,0,0,1-.74.25A6.85,6.85,0,0,0-1,5.51V-.75A64,64,0,0,1,9.05-.71Z" style="fill:#3949b3"/><path d="M9.05-.71-1-.75C-1.12-1.19-.78-1-.62-1q25.49,0,51,0c.58,0,.69.11.69.69q0,25.49,0,51c0,.17.17.5-.27.41l0-6.81a2.05,2.05,0,0,1-.59-1.74c0-6.77-.11-13.54.06-20.32-.14-5.92-.1-11.85,0-17.78a3.45,3.45,0,0,0-.11-1.2C50.18,0,50.07-.1,46.86-.1c-4.75,0-9.51,0-14.26,0-.81,0-1.66.1-2.29-.6Z" style="fill:#fefefe"/><path d="M50.71,22.14V44.22c-2.25.6-4.18,1.92-6.31,2.8-2.29.95-4.49,2.12-6.73,3.19-1-1-2-1.92-3-2.91C30,42.66,25.34,38,20.66,33.36c-1.09-1.08-2.29-2.05-3.45-3.07.28-.72.55-1.44.82-2.16,2.11-1.79,4.24-3.56,6.33-5.36a2.22,2.22,0,0,1,1.58-.66,5,5,0,0,1,2.46-.62c6.78,0,13.56,0,20.34,0C49.44,21.51,50.21,21.43,50.71,22.14Z" style="fill:#2796e0"/><path d="M30.31-.71Q40.14-.72,50-.77c.68,0,.84.24.81.86-.06,1-.05,2-.06,3a4.15,4.15,0,0,1-1.58,2q-10,7.49-20,14.91c-.66.48-1.25,1.45-2.35.84.3-3.65,1.16-7.21,1.74-10.81S29.71,2.85,30.31-.71Z" style="fill:#3663c9"/><path d="M26.78,20.78c3.54-2.59,7.1-5.17,10.63-7.79,4.45-3.29,8.87-6.61,13.3-9.92V22.14l-24.77,0Z" style="fill:#2d76d3"/></svg>