<?xml version="1.0" encoding="UTF-8" standalone="no"?>
<!DOCTYPE svg PUBLIC "-//W3C//DTD SVG 1.1//EN" "http://www.w3.org/Graphics/SVG/1.1/DTD/svg11.dtd">
<svg width="32px" height="32px" viewBox="0 0 126 150" version="1.1" xmlns="http://www.w3.org/2000/svg" xmlns:xlink="http://www.w3.org/1999/xlink" xml:space="preserve" xmlns:serif="http://www.serif.com/" style="fill-rule:evenodd;clip-rule:evenodd;stroke-linejoin:round;stroke-miterlimit:2;">
    <g transform="matrix(1,0,0,1,-225.974,-1686.47)">
        <g transform="matrix(1,0,0,1,-0.165627,-4.59738)">
            <g transform="matrix(1.16469,0,0,1.46203,-36.9857,-858.337)">
                <g opacity="0.79">
                    <path d="M284.198,1744.92C282.947,1744.4 281.453,1744.4 280.202,1744.92C272.178,1748.29 242.318,1760.79 233.778,1764.37C232.367,1764.96 231.483,1766.13 231.483,1767.4C231.483,1777.79 231.483,1824.38 231.483,1837.46C231.483,1839.34 233.405,1840.88 235.776,1840.88C252.348,1840.88 312.052,1840.88 328.624,1840.88C330.995,1840.88 332.917,1839.34 332.917,1837.46C332.917,1824.38 332.917,1777.79 332.917,1767.4C332.917,1766.13 332.034,1764.96 330.622,1764.37C322.082,1760.79 292.222,1748.29 284.198,1744.92Z" style="fill:url(#_Linear1);"/>
                </g>
            </g>
            <g transform="matrix(1.16469,0,0,1.46203,-43.4654,-850.539)">
                <path d="M284.216,1744.93C282.954,1744.4 281.446,1744.4 280.184,1744.93C272.139,1748.3 242.36,1760.78 233.799,1764.36C232.375,1764.96 231.483,1766.14 231.483,1767.42C231.483,1777.84 231.483,1824.32 231.483,1837.42C231.483,1839.33 233.423,1840.88 235.815,1840.88C252.429,1840.88 311.971,1840.88 328.585,1840.88C330.978,1840.88 332.917,1839.33 332.917,1837.42C332.917,1824.32 332.917,1777.84 332.917,1767.42C332.917,1766.14 332.025,1764.96 330.601,1764.36C322.04,1760.78 292.261,1748.3 284.216,1744.93Z" style="fill:url(#_Linear2);"/>
            </g>
            <g transform="matrix(1.06518,0,0,1.28233,-11.4955,-519.728)">
                <path d="M298.865,1808.24C298.865,1806.08 296.763,1804.34 294.171,1804.34C286.351,1804.34 270.746,1804.34 262.926,1804.34C260.334,1804.34 258.232,1806.08 258.232,1808.24C258.232,1817.66 258.232,1840.88 258.232,1840.88L298.865,1840.88L298.865,1808.24Z" style="fill:white;"/>
            </g>
            <g transform="matrix(1.06518,0,0,1.28233,-5.0158,-527.526)">
                <path d="M298.865,1808.21C298.865,1806.07 296.778,1804.34 294.204,1804.34C286.396,1804.34 270.757,1804.34 262.926,1804.34C260.334,1804.34 258.232,1806.08 258.232,1808.24C258.232,1817.66 258.232,1840.88 258.232,1840.88L298.865,1840.88L298.865,1808.21Z" style="fill:white;fill-opacity:0.68;"/>
            </g>
        </g>
    </g>
    <defs>
        <linearGradient id="_Linear1" x1="0" y1="0" x2="1" y2="0" gradientUnits="userSpaceOnUse" gradientTransform="matrix(-101.434,-75.5426,94.8285,-80.805,332.917,1840.88)"><stop offset="0" style="stop-color:rgb(0,63,235);stop-opacity:1"/><stop offset="1" style="stop-color:rgb(187,241,243);stop-opacity:1"/></linearGradient>
        <linearGradient id="_Linear2" x1="0" y1="0" x2="1" y2="0" gradientUnits="userSpaceOnUse" gradientTransform="matrix(-101.434,-75.5426,94.8285,-80.805,332.917,1840.88)"><stop offset="0" style="stop-color:rgb(195,253,255);stop-opacity:0.66"/><stop offset="1" style="stop-color:rgb(59,248,255);stop-opacity:0.66"/></linearGradient>
    </defs>
</svg>
